<?xml version="1.0" encoding="iso-8859-1"?>
<!-- Uploaded to: SVG Repo, www.svgrepo.com, Generator: SVG Repo Mixer Tools -->
<svg fill="#000000" height="64px" width="64px" version="1.1" id="Capa_1" xmlns="http://www.w3.org/2000/svg" xmlns:xlink="http://www.w3.org/1999/xlink" 
	 viewBox="0 0 121.669 121.669" xml:space="preserve">
<g>
	<path d="M60.835,121.669c-33.544,0-60.834-27.29-60.834-60.835C0.001,27.29,27.291,0,60.835,0s60.834,27.29,60.834,60.834
		C121.669,94.379,94.379,121.669,60.835,121.669z M60.835,6C30.6,6,6.001,30.599,6.001,60.834c0,30.236,24.599,54.835,54.834,54.835
		s54.834-24.599,54.834-54.835C115.669,30.599,91.071,6,60.835,6z"/>
	<polygon points="68.422,76.206 68.387,76.241 68.353,76.206 60.835,83.724 53.318,76.206 53.282,76.241 53.248,76.206 
		41.492,87.962 45.736,92.204 53.283,84.656 60.831,92.204 60.835,92.2 60.84,92.204 68.388,84.656 75.936,92.204 80.178,87.961 	
		"/>
	<polygon points="21.779,72.61 18.872,67.362 30.657,60.835 18.872,54.308 21.779,49.059 43.041,60.835 	"/>
	<polygon points="99.891,72.61 78.628,60.835 99.891,49.059 102.797,54.308 91.013,60.835 102.797,67.362 	"/>
</g>
</svg>